<svg width="34" height="34" viewBox="0 0 34 34" fill="none" xmlns="http://www.w3.org/2000/svg">
<path d="M5.37625 19.2823L6.36862 21.2373C5.68862 21.9066 5.3125 22.6355 5.3125 23.375C5.3125 26.1078 10.4699 28.6875 17 28.6875C23.5301 28.6875 28.6875 26.1078 28.6875 23.375C28.6875 22.6355 28.3092 21.9088 27.6314 21.2394L28.6429 19.2993C30.0135 20.4468 30.8125 21.8365 30.8125 23.375C30.8125 27.6824 24.5522 30.8125 17 30.8125C9.44775 30.8125 3.1875 27.6824 3.1875 23.375C3.1875 21.828 3.995 20.434 5.37625 19.2823Z" fill="white"/>
<path d="M5.37625 12.9073L6.36862 14.8623C5.68862 15.5338 5.3125 16.2626 5.3125 17C5.3125 19.7328 10.4699 22.3125 17 22.3125C23.5301 22.3125 28.6875 19.7328 28.6875 17C28.6875 16.2605 28.3092 15.5338 27.6314 14.8644L28.6429 12.9243C30.0135 14.0718 30.8125 15.4615 30.8125 17C30.8125 21.3074 24.5522 24.4375 17 24.4375C9.44775 24.4375 3.1875 21.3074 3.1875 17C3.1875 15.453 3.995 14.059 5.37625 12.9073Z" fill="white"/>
<path d="M17 18.0625C9.44775 18.0625 3.1875 14.9324 3.1875 10.625C3.1875 6.31763 9.44775 3.1875 17 3.1875C24.5522 3.1875 30.8125 6.31763 30.8125 10.625C30.8125 14.9324 24.5522 18.0625 17 18.0625ZM17 15.9375C23.5301 15.9375 28.6875 13.3577 28.6875 10.625C28.6875 7.89225 23.5301 5.3125 17 5.3125C10.4699 5.3125 5.3125 7.89225 5.3125 10.625C5.3125 13.3577 10.4699 15.9375 17 15.9375Z" fill="white"/>
</svg>
