<svg width="24" height="25" viewBox="0 0 24 25" fill="none" xmlns="http://www.w3.org/2000/svg">
<path d="M3.795 14.111L4.4955 15.491C4.0155 15.9635 3.75 16.478 3.75 17C3.75 18.929 7.3905 20.75 12 20.75C16.6095 20.75 20.25 18.929 20.25 17C20.25 16.478 19.983 15.965 19.5045 15.4925L20.2185 14.123C21.186 14.933 21.75 15.914 21.75 17C21.75 20.0405 17.331 22.25 12 22.25C6.669 22.25 2.25 20.0405 2.25 17C2.25 15.908 2.82 14.924 3.795 14.111Z" fill="#242B58"/>
<path d="M3.795 9.61102L4.4955 10.991C4.0155 11.465 3.75 11.9795 3.75 12.5C3.75 14.429 7.3905 16.25 12 16.25C16.6095 16.25 20.25 14.429 20.25 12.5C20.25 11.978 19.983 11.465 19.5045 10.9925L20.2185 9.62302C21.186 10.433 21.75 11.414 21.75 12.5C21.75 15.5405 17.331 17.75 12 17.75C6.669 17.75 2.25 15.5405 2.25 12.5C2.25 11.408 2.82 10.424 3.795 9.61102Z" fill="#242B58"/>
<path d="M12 13.25C6.669 13.25 2.25 11.0405 2.25 8C2.25 4.9595 6.669 2.75 12 2.75C17.331 2.75 21.75 4.9595 21.75 8C21.75 11.0405 17.331 13.25 12 13.25ZM12 11.75C16.6095 11.75 20.25 9.929 20.25 8C20.25 6.071 16.6095 4.25 12 4.25C7.3905 4.25 3.75 6.071 3.75 8C3.75 9.929 7.3905 11.75 12 11.75Z" fill="#242B58"/>
</svg>
