<svg xmlns="http://www.w3.org/2000/svg" width="19" height="18" viewBox="0 0 19 18" fill="none">
  <path d="M16.1978 5.625V15.75H6.07275V5.625H16.1978ZM16.1978 4.5H6.07275C5.77439 4.5 5.48824 4.61853 5.27726 4.82951C5.06628 5.04048 4.94775 5.32663 4.94775 5.625V15.75C4.94775 16.0484 5.06628 16.3345 5.27726 16.5455C5.48824 16.7565 5.77439 16.875 6.07275 16.875H16.1978C16.4961 16.875 16.7823 16.7565 16.9932 16.5455C17.2042 16.3345 17.3228 16.0484 17.3228 15.75V5.625C17.3228 5.32663 17.2042 5.04048 16.9932 4.82951C16.7823 4.61853 16.4961 4.5 16.1978 4.5Z" fill="#FFD66C"/>
  <path d="M2.69775 10.125H1.57275V2.25C1.57275 1.95163 1.69128 1.66548 1.90226 1.4545C2.11324 1.24353 2.39939 1.125 2.69775 1.125H10.5728V2.25H2.69775V10.125Z" fill="#FFD66C"/>
</svg>