<svg width="14" height="14" viewBox="0 0 14 14" fill="none" xmlns="http://www.w3.org/2000/svg">
<path d="M3.83936 9.57252L6.22973 9.5644L11.4471 4.3969C11.6518 4.19215 11.7645 3.92023 11.7645 3.63098C11.7645 3.34173 11.6518 3.06981 11.4471 2.86506L10.588 2.00598C10.1785 1.59648 9.46402 1.59865 9.05777 2.00435L3.83936 7.17294V9.57252ZM9.82206 2.7719L10.6828 3.62935L9.81773 4.48627L8.95865 3.62773L9.82206 2.7719ZM4.92269 7.62469L8.18894 4.38931L9.04802 5.2484L5.78231 8.48269L4.92269 8.4854V7.62469Z" fill="#714EF0"/>
<path d="M2.75594 11.7321H10.3393C10.9367 11.7321 11.4226 11.2462 11.4226 10.6488V5.95362L10.3393 7.03695V10.6488H4.46652C4.45244 10.6488 4.43782 10.6542 4.42373 10.6542C4.40586 10.6542 4.38798 10.6493 4.36957 10.6488H2.75594V3.06545H6.46473L7.54807 1.98212H2.75594C2.15848 1.98212 1.67261 2.46799 1.67261 3.06545V10.6488C1.67261 11.2462 2.15848 11.7321 2.75594 11.7321Z" fill="#714EF0"/>
</svg>
