<svg width="29" height="28" viewBox="0 0 29 28" fill="none" xmlns="http://www.w3.org/2000/svg">
<path d="M12.1667 3.5H5.16667C4.85725 3.5 4.5605 3.62292 4.34171 3.84171C4.12292 4.0605 4 4.35725 4 4.66667V11.6667C4 11.9761 4.12292 12.2728 4.34171 12.4916C4.5605 12.7104 4.85725 12.8333 5.16667 12.8333H12.1667C12.4761 12.8333 12.7728 12.7104 12.9916 12.4916C13.2104 12.2728 13.3333 11.9761 13.3333 11.6667V4.66667C13.3333 4.35725 13.2104 4.0605 12.9916 3.84171C12.7728 3.62292 12.4761 3.5 12.1667 3.5ZM11 10.5H6.33333V5.83333H11V10.5ZM23.8333 15.1667H16.8333C16.5239 15.1667 16.2272 15.2896 16.0084 15.5084C15.7896 15.7272 15.6667 16.0239 15.6667 16.3333V23.3333C15.6667 23.6428 15.7896 23.9395 16.0084 24.1583C16.2272 24.3771 16.5239 24.5 16.8333 24.5H23.8333C24.1428 24.5 24.4395 24.3771 24.6583 24.1583C24.8771 23.9395 25 23.6428 25 23.3333V16.3333C25 16.0239 24.8771 15.7272 24.6583 15.5084C24.4395 15.2896 24.1428 15.1667 23.8333 15.1667ZM22.6667 22.1667H18V17.5H22.6667V22.1667ZM20.3333 3.5C17.7597 3.5 15.6667 5.593 15.6667 8.16667C15.6667 10.7403 17.7597 12.8333 20.3333 12.8333C22.907 12.8333 25 10.7403 25 8.16667C25 5.593 22.907 3.5 20.3333 3.5ZM20.3333 10.5C19.0465 10.5 18 9.4535 18 8.16667C18 6.87983 19.0465 5.83333 20.3333 5.83333C21.6202 5.83333 22.6667 6.87983 22.6667 8.16667C22.6667 9.4535 21.6202 10.5 20.3333 10.5ZM8.66667 15.1667C6.093 15.1667 4 17.2597 4 19.8333C4 22.407 6.093 24.5 8.66667 24.5C11.2403 24.5 13.3333 22.407 13.3333 19.8333C13.3333 17.2597 11.2403 15.1667 8.66667 15.1667ZM8.66667 22.1667C7.37983 22.1667 6.33333 21.1202 6.33333 19.8333C6.33333 18.5465 7.37983 17.5 8.66667 17.5C9.9535 17.5 11 18.5465 11 19.8333C11 21.1202 9.9535 22.1667 8.66667 22.1667Z" fill="#FF4B81"/>
</svg>
