<svg width="24" height="25" viewBox="0 0 24 25" fill="none" xmlns="http://www.w3.org/2000/svg">
<path d="M5.26867 10.25C5.26742 9.36087 5.4421 8.48026 5.78263 7.65891C6.12317 6.83757 6.62284 6.0917 7.25287 5.46429C7.88289 4.83688 8.63083 4.34031 9.45358 4.0032C10.2763 3.66608 11.1577 3.49507 12.0468 3.50001C15.7593 3.52814 18.7312 6.61251 18.7312 10.3344V11C18.7312 14.3563 19.4343 16.3063 20.053 17.375C20.1188 17.4888 20.1534 17.6179 20.1535 17.7494C20.1536 17.8808 20.1192 18.0099 20.0537 18.1239C19.9882 18.2378 19.8939 18.3325 19.7802 18.3985C19.6666 18.4646 19.5376 18.4996 19.4062 18.5H4.59367C4.46224 18.4996 4.33324 18.4646 4.2196 18.3985C4.10595 18.3325 4.01165 18.2378 3.94613 18.1239C3.88062 18.0099 3.8462 17.8808 3.84631 17.7494C3.84643 17.6179 3.88108 17.4888 3.9468 17.375C4.56555 16.3063 5.26867 14.3563 5.26867 11V10.25Z" stroke="#787979" stroke-width="2" stroke-linecap="round" stroke-linejoin="round"/>
<path d="M9 18.5V19.25C9 20.0456 9.31607 20.8087 9.87868 21.3713C10.4413 21.9339 11.2044 22.25 12 22.25C12.7956 22.25 13.5587 21.9339 14.1213 21.3713C14.6839 20.8087 15 20.0456 15 19.25V18.5" stroke="#787979" stroke-width="2" stroke-linecap="round" stroke-linejoin="round"/>
<rect x="14" y="1.5" width="8" height="8" rx="4" fill="#FF4B81"/>
</svg>
