<svg xmlns="http://www.w3.org/2000/svg" width="25" height="24" viewBox="0 0 25 24" fill="none">
  <path d="M22.1488 19.875C20.7209 17.4065 18.5206 15.6365 15.9528 14.7975C17.223 14.0414 18.2098 12.8892 18.7618 11.5179C19.3137 10.1467 19.4003 8.63211 19.0082 7.20688C18.6161 5.78165 17.767 4.52454 16.5912 3.6286C15.4155 2.73266 13.9782 2.24744 12.5 2.24744C11.0218 2.24744 9.58451 2.73266 8.40878 3.6286C7.23306 4.52454 6.38394 5.78165 5.99183 7.20688C5.59971 8.63211 5.68629 10.1467 6.23825 11.5179C6.79021 12.8892 7.77704 14.0414 9.0472 14.7975C6.47938 15.6356 4.27907 17.4056 2.85126 19.875C2.7989 19.9604 2.76417 20.0554 2.74912 20.1544C2.73407 20.2534 2.739 20.3544 2.76363 20.4515C2.78825 20.5486 2.83207 20.6397 2.8925 20.7196C2.95293 20.7995 3.02874 20.8664 3.11547 20.9165C3.2022 20.9666 3.29808 20.9988 3.39745 21.0113C3.49683 21.0237 3.5977 21.0161 3.69409 20.989C3.79049 20.9618 3.88047 20.9156 3.95872 20.8531C4.03697 20.7906 4.1019 20.713 4.1497 20.625C5.91595 17.5725 9.03782 15.75 12.5 15.75C15.9622 15.75 19.0841 17.5725 20.8503 20.625C20.8981 20.713 20.9631 20.7906 21.0413 20.8531C21.1196 20.9156 21.2095 20.9618 21.3059 20.989C21.4023 21.0161 21.5032 21.0237 21.6026 21.0113C21.7019 20.9988 21.7978 20.9666 21.8845 20.9165C21.9713 20.8664 22.0471 20.7995 22.1075 20.7196C22.1679 20.6397 22.2118 20.5486 22.2364 20.4515C22.261 20.3544 22.266 20.2534 22.2509 20.1544C22.2358 20.0554 22.2011 19.9604 22.1488 19.875ZM7.25001 8.99999C7.25001 7.96164 7.55792 6.9466 8.13479 6.08324C8.71167 5.21989 9.53161 4.54698 10.4909 4.14962C11.4502 3.75226 12.5058 3.64829 13.5242 3.85086C14.5426 4.05344 15.4781 4.55345 16.2123 5.28768C16.9465 6.0219 17.4466 6.95736 17.6491 7.97576C17.8517 8.99416 17.7477 10.0498 17.3504 11.0091C16.953 11.9684 16.2801 12.7883 15.4168 13.3652C14.5534 13.9421 13.5384 14.25 12.5 14.25C11.1081 14.2485 9.77359 13.6949 8.78934 12.7107C7.8051 11.7264 7.2515 10.3919 7.25001 8.99999Z" fill="#A4A19F"/>
</svg>