<svg xmlns="http://www.w3.org/2000/svg" width="25" height="24" viewBox="0 0 25 24" fill="none">
  <path d="M12.4985 2.25C11.1688 2.25 4.65126 5.988 3.99351 7.128C3.33501 8.268 3.33501 15.7372 3.99351 16.8735C4.65501 18.0127 11.1725 21.75 12.4985 21.75C13.8215 21.75 20.339 18.015 21.002 16.8765C21.6673 15.735 21.6673 8.2605 21.002 7.1235V7.122C20.3338 5.985 13.817 2.25 12.4985 2.25ZM12.497 3.759C13.7698 4.02375 18.8135 6.91275 19.697 7.8825C20.102 9.1125 20.1013 14.883 19.697 16.116C18.8195 17.0843 13.772 19.977 12.497 20.241C11.2235 19.9785 6.17901 17.0872 5.30001 16.1175C4.89876 14.8815 4.89876 9.117 5.30001 7.8825C6.17751 6.91275 11.2228 4.0215 12.497 3.759ZM10.25 6.75L8.75001 8.25H9.50001V15.75H11V12.75H14V15.75H13.25L14.75 17.25L16.25 15.75H15.5V9H14V11.25H11V8.25H11.75L10.25 6.75Z" fill="#A4A19F"/>
</svg>