<svg width="11" height="13" viewBox="0 0 11 13" fill="none" xmlns="http://www.w3.org/2000/svg">
<path d="M6.10333 8.15299V9.35557C5.58255 9.17145 5.0252 9.11497 4.47807 9.19088C3.93094 9.2668 3.41002 9.47289 2.95904 9.79184C2.50806 10.1108 2.1402 10.5333 1.88634 11.0239C1.63249 11.5145 1.50005 12.0588 1.50016 12.6112H0.349366C0.349099 11.9085 0.509704 11.2151 0.818871 10.5841C1.12804 9.95308 1.57756 9.40123 2.13299 8.97082C2.68842 8.54042 3.33502 8.24289 4.02322 8.10103C4.71143 7.95917 5.42297 7.97732 6.10333 8.15299ZM4.95254 7.43259C3.0451 7.43259 1.50016 5.88765 1.50016 3.98021C1.50016 2.07277 3.0451 0.527832 4.95254 0.527832C6.85998 0.527832 8.40492 2.07277 8.40492 3.98021C8.40492 5.88765 6.85998 7.43259 4.95254 7.43259ZM4.95254 6.2818C6.22417 6.2818 7.25413 5.25184 7.25413 3.98021C7.25413 2.70859 6.22417 1.67863 4.95254 1.67863C3.68091 1.67863 2.65095 2.70859 2.65095 3.98021C2.65095 5.25184 3.68091 6.2818 4.95254 6.2818ZM8.7421 9.73418L7.6897 8.68235L8.50389 7.86817L10.9447 10.3096L8.50389 12.751L7.6897 11.9368L8.7421 10.885H6.67873V9.73418H8.7421Z" fill="#7C62E3"/>
</svg>
