<?xml version="1.0" encoding="UTF-8"?>
<!DOCTYPE svg PUBLIC "-//W3C//DTD SVG 1.1//EN" "http://www.w3.org/Graphics/SVG/1.1/DTD/svg11.dtd">
<!-- Creator: CorelDRAW 2021.5 -->
<svg xmlns="http://www.w3.org/2000/svg" xml:space="preserve" width="14.5515in" height="2.21739in" version="1.1" style="shape-rendering:geometricPrecision; text-rendering:geometricPrecision; image-rendering:optimizeQuality; fill-rule:evenodd; clip-rule:evenodd"
viewBox="0 0 14612.2 2226.63"
 xmlns:xlink="http://www.w3.org/1999/xlink"
 xmlns:xodm="http://www.corel.com/coreldraw/odm/2003">
 <defs>
  <style type="text/css">
   <![CDATA[
    .fil0 {fill:#E23347}
    .fil1 {fill:white}
    .fil2 {fill:#242B58;fill-rule:nonzero}
    .fil3 {fill:#242B58;fill-rule:nonzero}
   ]]>
  </style>
 </defs>
 <g id="Layer_x0020_1">
  <metadata id="CorelCorpID_0Corel-Layer"/>
  <g id="_1819625205776">
   <g id="_2573586837872">
    <path class="fil0" d="M975.74 481.49c-42.28,444.6 -622.85,285.29 -548.85,-0.27 100.39,0 98.88,-24.33 123.98,51.51 17.19,51.91 38.79,79.53 98.39,91.44 56.19,11.22 126.56,-0.05 157.85,-27.45 94.89,-83.13 -49.42,-115.23 168.63,-115.23l0 0.01zm382.12 -481.49l-25.17 0c-106.86,40.8 -1175.39,40.55 -1282.95,0l-25.17 0c-6.82,282.24 38.26,512.84 7.56,848.32 -6.32,69.12 -38.53,198.15 -30.99,257.72l1384.8 0c0.25,-3.76 -47.16,-355.46 -47.04,-531.16 0.14,-184.26 26.79,-408.84 18.95,-574.87z"/>
    <path class="fil1" d="M975.74 481.49c-218.06,0 -73.74,32.1 -168.63,115.23 -31.28,27.4 -101.66,38.66 -157.85,27.44 -59.61,-11.91 -81.21,-39.54 -98.39,-91.44 -25.11,-75.83 -23.61,-51.51 -123.98,-51.51 -73.99,285.55 506.59,444.87 548.85,0.27l0 -0z"/>
    <path class="fil1" d="M1332.68 0l-1282.95 0c107.55,40.55 1176.07,40.8 1282.95,0z"/>
   </g>
   <path class="fil2" d="M2900.82 2029.44c-124.52,111.73 -285.22,167.58 -482.12,167.58 -196.88,0 -357.58,-55.86 -482.1,-167.58 -124.53,-111.73 -186.8,-261.67 -186.8,-449.83l0 -1179.4 290.29 0 0 1161.75c0,107.52 31.55,193.2 94.67,257.04 63.1,63.85 157.75,95.76 283.96,95.76 126.22,0 220.88,-31.92 283.96,-95.76 63.1,-63.85 94.67,-149.53 94.67,-257.04l0 -1161.75 290.27 0 0 1179.4c0,188.17 -62.26,338.12 -186.78,449.83l-0.02 0zm1880.49 -1157.98c143.04,0 258.3,46.2 345.82,138.6 87.5,92.4 131.27,216.73 131.27,372.96l0 781.22 -272.6 0 0 -763.59c0,-87.37 -21.87,-154.99 -65.63,-202.87 -43.76,-47.88 -103.48,-71.82 -179.21,-71.82 -84.13,0 -151.02,27.73 -200.67,83.16 -49.64,55.44 -74.45,138.6 -74.45,249.49l0 705.61 -272.61 0 0 -763.59c0,-87.37 -20.61,-154.99 -61.84,-202.87 -41.23,-47.88 -99.72,-71.82 -175.43,-71.82 -82.46,0 -149.77,28.15 -201.94,84.42 -52.17,56.28 -78.24,139.02 -78.24,248.24l0 705.61 -272.6 0 0 -1260.04 272.6 0 0 151.2c80.78,-122.65 201.09,-183.96 360.95,-183.96 161.54,0 281.02,66.36 358.43,199.08 84.13,-132.72 212.86,-199.08 386.19,-199.08l-0.03 0.04zm1028.6 -207.9c-34.5,34.44 -75.31,51.67 -122.43,51.67 -47.12,0 -87.92,-17.23 -122.43,-51.67 -34.5,-34.44 -51.75,-75.17 -51.75,-122.22 0,-47.04 16.83,-87.79 50.48,-122.23 33.66,-34.44 74.89,-51.67 123.68,-51.67 48.79,0 90.02,17.23 123.68,51.67 33.65,34.44 50.49,75.17 50.49,122.23 0,47.04 -17.26,87.79 -51.75,122.22l0.01 0zm-258.72 1500.71l0 -1260.04 272.6 0 0 1260.04 -272.6 0zm1183.84 32.76c-190.16,0 -348.76,-63.85 -475.81,-191.53 -127.04,-127.68 -190.57,-284.77 -190.57,-471.26 0,-188.17 63.54,-345.67 190.57,-472.51 127.05,-126.84 285.65,-190.27 475.81,-190.27 122.84,0 234.75,29.41 335.7,88.21 100.97,58.8 176.7,137.76 227.17,236.89l-234.75 136.09c-28.6,-60.48 -71.94,-107.94 -129.99,-142.39 -58.05,-34.44 -124.94,-51.65 -200.67,-51.65 -111.07,0 -204.04,37.79 -278.93,113.4 -74.89,75.61 -112.32,169.69 -112.32,282.25 0,112.57 37.43,206.65 112.32,282.24 74.89,75.61 167.86,113.4 278.93,113.4 74.03,0 140.92,-17.64 200.67,-52.92 59.73,-35.28 104.75,-82.32 135.04,-141.12l234.75 133.55c-53.84,100.8 -131.27,180.6 -232.22,239.41 -100.95,58.8 -212.88,88.21 -335.7,88.21l0 -0.01zm1340.32 0c-185.11,0 -342.45,-63.85 -472.01,-191.53 -129.57,-127.68 -194.37,-284.77 -194.37,-471.26 0,-186.48 64.8,-343.57 194.37,-471.26 129.57,-127.68 286.92,-191.53 472.01,-191.53 186.78,0 344.54,63.85 473.27,191.53 128.73,127.68 193.1,284.77 193.1,471.26 0,186.48 -64.35,343.58 -193.1,471.26 -128.73,127.68 -286.5,191.53 -473.27,191.53zm-280.17 -378.01c75.73,75.61 169.12,113.4 280.17,113.4 111.07,0 204.46,-37.79 280.19,-113.4 75.72,-75.61 113.59,-170.53 113.59,-284.77 0,-114.24 -37.87,-209.16 -113.59,-284.77 -75.73,-75.59 -169.12,-113.4 -280.19,-113.4 -111.06,0 -204.46,37.79 -280.17,113.4 -75.73,75.61 -113.59,170.53 -113.59,284.77 0,114.24 37.87,209.16 113.59,284.77z"/>
   <path class="fil3" d="M10059.18 669.35l-761.85 0 0 506.18 736.03 0 0 284.08 -736.03 0 0 733.44 -296.99 0 0 -1807.78 1058.84 0 0 284.08zm480.35 996.86c20.66,98.14 68.01,173.46 142.04,225.97 74.03,52.51 164.42,78.77 271.17,78.77 148.07,0 259.11,-53.37 333.15,-160.12l229.84 134.29c-127.4,187.66 -315.93,281.5 -565.58,281.5 -210.05,0 -379.63,-64.13 -508.76,-192.4 -129.13,-128.26 -193.69,-290.53 -193.69,-486.81 0,-192.83 63.7,-354.24 191.11,-484.23 127.4,-129.99 290.96,-194.98 490.68,-194.98 189.39,0 344.77,66.28 466.15,198.86 121.38,132.57 182.07,293.55 182.07,482.93 0,29.27 -3.44,68.01 -10.33,116.21l-1027.85 0zm-2.58 -227.26l759.27 0c-18.94,-105.02 -62.41,-184.22 -130.42,-237.6 -68.01,-53.37 -147.64,-80.06 -238.89,-80.06 -103.3,0 -189.39,28.41 -258.26,85.22 -68.87,56.81 -112.77,134.29 -131.71,232.43zm1497.88 227.26c20.66,98.14 68.01,173.46 142.04,225.97 74.03,52.51 164.42,78.77 271.17,78.77 148.07,0 259.11,-53.37 333.15,-160.12l229.84 134.29c-127.4,187.66 -315.93,281.5 -565.58,281.5 -210.05,0 -379.63,-64.13 -508.76,-192.4 -129.13,-128.26 -193.69,-290.53 -193.69,-486.81 0,-192.83 63.7,-354.24 191.11,-484.23 127.4,-129.99 290.96,-194.98 490.68,-194.98 189.39,0 344.77,66.28 466.15,198.86 121.38,132.57 182.07,293.55 182.07,482.93 0,29.27 -3.44,68.01 -10.33,116.21l-1027.85 0zm-2.58 -227.26l759.27 0c-18.94,-105.02 -62.41,-184.22 -130.42,-237.6 -68.01,-53.37 -147.64,-80.06 -238.89,-80.06 -103.3,0 -189.39,28.41 -258.26,85.22 -68.87,56.81 -112.77,134.29 -131.71,232.43zm2301.05 -1053.68l278.91 0 0 1807.78 -278.91 0 0 -185.95c-105.02,146.35 -255.67,219.52 -451.95,219.52 -177.33,0 -328.84,-65.86 -454.53,-197.56 -125.68,-131.71 -188.52,-292.26 -188.52,-481.65 0,-191.11 62.84,-352.09 188.52,-482.94 125.69,-130.85 277.19,-196.27 454.53,-196.27 196.28,0 346.92,72.31 451.95,216.93l0 -699.87zm-699.87 1457.85c77.48,78.34 174.75,117.51 291.83,117.51 117.08,0 214.35,-39.17 291.83,-117.51 77.48,-78.34 116.21,-176.9 116.21,-295.7 0,-118.8 -38.74,-217.36 -116.21,-295.7 -77.48,-78.34 -174.75,-117.51 -291.83,-117.51 -117.07,0 -214.35,39.17 -291.83,117.51 -77.48,78.34 -116.21,176.9 -116.21,295.7 0,118.8 38.74,217.36 116.21,295.7z"/>
  </g>
 </g>
</svg>
