<?xml version="1.0" encoding="UTF-8"?>
<!DOCTYPE svg PUBLIC "-//W3C//DTD SVG 1.1//EN" "http://www.w3.org/Graphics/SVG/1.1/DTD/svg11.dtd">
<!-- Creator: CorelDRAW 2021.5 -->
<svg xmlns="http://www.w3.org/2000/svg" xml:space="preserve" width="12.497in" height="1.46513in" version="1.1" style="shape-rendering:geometricPrecision; text-rendering:geometricPrecision; image-rendering:optimizeQuality; fill-rule:evenodd; clip-rule:evenodd"
viewBox="0 0 12509.19 1466.56"
 xmlns:xlink="http://www.w3.org/1999/xlink"
 xmlns:xodm="http://www.corel.com/coreldraw/odm/2003">
 <defs>
  <style type="text/css">
   <![CDATA[
    .fil0 {fill:#E23347}
    .fil1 {fill:white}
    .fil2 {fill:#242B58;fill-rule:nonzero}
   ]]>
  </style>
 </defs>
 <g id="Layer_x0020_1">
  <metadata id="CorelCorpID_0Corel-Layer"/>
  <g id="_2573586837872">
   <path class="fil0" d="M651.32 321.4c-28.22,296.78 -415.76,190.44 -366.37,-0.18 67.01,0 66,-16.24 82.76,34.38 11.47,34.65 25.89,53.09 65.68,61.04 37.51,7.49 84.48,-0.03 105.37,-18.32 63.34,-55.49 -32.99,-76.92 112.56,-76.92zm255.07 -321.4l-16.8 0c-71.33,27.23 -784.59,27.07 -856.39,0l-16.8 0c-4.55,188.4 25.54,342.33 5.05,566.27 -4.22,46.14 -25.72,132.27 -20.69,172.03l924.38 0c0.17,-2.51 -31.48,-237.28 -31.4,-354.56 0.09,-123 17.88,-272.91 12.65,-383.74z"/>
   <path class="fil1" d="M651.32 321.4c-145.56,0 -49.22,21.43 -112.56,76.92 -20.88,18.29 -67.86,25.81 -105.37,18.32 -39.79,-7.95 -54.21,-26.39 -65.68,-61.04 -16.76,-50.62 -15.76,-34.38 -82.76,-34.38 -49.39,190.61 338.16,296.96 366.37,0.18z"/>
   <path class="fil1" d="M889.59 0l-856.39 0c71.79,27.07 785.05,27.23 856.39,0z"/>
  </g>
  <path class="fil2" d="M1936.35 1354.69c-83.12,74.58 -190.39,111.86 -321.82,111.86 -131.42,0 -238.69,-37.29 -321.81,-111.86 -83.13,-74.58 -124.69,-174.67 -124.69,-300.27l0 -787.27 193.77 0 0 775.49c0,71.77 21.06,128.97 63.19,171.58 42.12,42.62 105.3,63.92 189.55,63.92 84.25,0 147.44,-21.31 189.55,-63.92 42.12,-42.62 63.19,-99.81 63.19,-171.58l0 -775.49 193.76 0 0 787.27c0,125.61 -41.56,225.7 -124.68,300.27zm1255.26 -772.97c95.48,0 172.42,30.84 230.84,92.52 58.41,61.68 87.62,144.67 87.62,248.96l0 521.48 -181.97 0 0 -509.71c0,-58.32 -14.6,-103.46 -43.81,-135.42 -29.21,-31.96 -69.08,-47.94 -119.63,-47.94 -56.16,0 -100.81,18.51 -133.95,55.51 -33.13,37.01 -49.7,92.52 -49.7,166.54l0 471.01 -181.97 0 0 -509.71c0,-58.32 -13.76,-103.46 -41.28,-135.42 -27.52,-31.96 -66.56,-47.94 -117.1,-47.94 -55.04,0 -99.97,18.79 -134.8,56.35 -34.82,37.57 -52.23,92.8 -52.23,165.7l0 471.01 -181.97 0 0 -841.1 181.97 0 0 100.93c53.92,-81.87 134.23,-122.8 240.94,-122.8 107.83,0 187.59,44.3 239.26,132.89 56.16,-88.59 142.09,-132.89 257.79,-132.89zm686.61 -138.78c-23.03,22.99 -50.27,34.49 -81.72,34.49 -31.45,0 -58.69,-11.5 -81.72,-34.49 -23.03,-22.99 -34.54,-50.18 -34.54,-81.58 0,-31.4 11.23,-58.6 33.7,-81.59 22.47,-22.99 49.99,-34.49 82.56,-34.49 32.57,0 60.09,11.5 82.56,34.49 22.46,22.99 33.7,50.18 33.7,81.59 0,31.4 -11.52,58.6 -34.54,81.58zm-172.7 1001.75l0 -841.1 181.97 0 0 841.1 -181.97 0zm790.23 21.87c-126.93,0 -232.8,-42.62 -317.61,-127.85 -84.8,-85.23 -127.21,-190.09 -127.21,-314.57 0,-125.61 42.41,-230.74 127.21,-315.41 84.81,-84.67 190.68,-127.01 317.61,-127.01 82,0 156.7,19.63 224.09,58.88 67.4,39.25 117.95,91.96 151.64,158.13l-156.7 90.84c-19.09,-40.37 -48.02,-72.05 -86.77,-95.05 -38.75,-22.99 -83.4,-34.48 -133.95,-34.48 -74.14,0 -136.2,25.23 -186.19,75.7 -49.99,50.47 -74.98,113.27 -74.98,188.41 0,75.14 24.99,137.94 74.98,188.4 49.99,50.47 112.05,75.7 186.19,75.7 49.42,0 94.07,-11.78 133.95,-35.33 39.87,-23.55 69.92,-54.95 90.14,-94.2l156.7 89.15c-35.94,67.29 -87.62,120.56 -155.01,159.81 -67.39,39.25 -142.1,58.88 -224.09,58.88zm894.69 0c-123.56,0 -228.59,-42.62 -315.08,-127.85 -86.49,-85.23 -129.74,-190.09 -129.74,-314.57 0,-124.48 43.25,-229.34 129.74,-314.57 86.49,-85.23 191.52,-127.85 315.08,-127.85 124.68,0 229.99,42.62 315.92,127.85 85.93,85.23 128.9,190.09 128.9,314.57 0,124.48 -42.96,229.34 -128.9,314.57 -85.93,85.23 -191.24,127.85 -315.92,127.85zm-187.02 -252.33c50.55,50.47 112.89,75.7 187.02,75.7 74.14,0 136.48,-25.23 187.03,-75.7 50.55,-50.47 75.82,-113.83 75.82,-190.09 0,-76.26 -25.28,-139.62 -75.82,-190.09 -50.55,-50.46 -112.89,-75.7 -187.03,-75.7 -74.13,0 -136.48,25.23 -187.02,75.7 -50.55,50.47 -75.82,113.83 -75.82,190.09 0,76.26 25.28,139.62 75.82,190.09zm1366.47 252.33c-177.48,0 -324.63,-58.6 -441.45,-175.79 -116.82,-117.19 -175.23,-262.14 -175.23,-434.85 0,-172.71 58.41,-317.66 175.23,-434.85 116.82,-117.19 263.97,-175.79 441.45,-175.79 106.71,0 205.28,25.23 295.7,75.7 90.43,50.47 160.91,118.88 211.46,205.23l-168.49 97.57c-31.45,-58.32 -77.22,-104.58 -137.32,-138.78 -60.1,-34.21 -127.21,-51.31 -201.35,-51.31 -125.8,0 -227.74,39.81 -305.81,119.44 -78.07,79.62 -117.1,180.55 -117.1,302.8 0,122.24 39.03,223.17 117.1,302.8 78.07,79.62 180.01,119.44 305.81,119.44 74.14,0 141.54,-17.1 202.19,-51.31 60.66,-34.2 106.15,-80.46 136.48,-138.78l168.49 95.89c-49.42,86.35 -119.35,155.04 -209.77,206.07 -90.42,51.03 -189.55,76.54 -297.39,76.54zm1051.39 0c-123.56,0 -228.59,-42.62 -315.08,-127.85 -86.49,-85.23 -129.74,-190.09 -129.74,-314.57 0,-124.48 43.24,-229.34 129.74,-314.57 86.49,-85.23 191.52,-127.85 315.08,-127.85 124.68,0 229.99,42.62 315.92,127.85 85.93,85.23 128.9,190.09 128.9,314.57 0,124.48 -42.97,229.34 -128.9,314.57 -85.93,85.23 -191.24,127.85 -315.92,127.85zm-187.02 -252.33c50.55,50.47 112.89,75.7 187.02,75.7 74.14,0 136.48,-25.23 187.02,-75.7 50.55,-50.47 75.82,-113.83 75.82,-190.09 0,-76.26 -25.27,-139.62 -75.82,-190.09 -50.55,-50.46 -112.89,-75.7 -187.02,-75.7 -74.14,0 -136.48,25.23 -187.02,75.7 -50.55,50.47 -75.82,113.83 -75.82,190.09 0,76.26 25.27,139.62 75.82,190.09zm1240.1 -632.51c96.6,0 174.67,30.84 234.2,92.52 59.53,61.68 89.3,146.35 89.3,254.01l0 516.43 -181.97 0 0 -497.93c0,-62.8 -16.85,-111.03 -50.55,-144.67 -33.69,-33.64 -79.75,-50.47 -138.16,-50.47 -64.03,0 -115.7,19.91 -155.02,59.72 -39.31,39.81 -58.97,100.65 -58.97,182.52l0 450.83 -181.97 0 0 -841.1 181.97 0 0 107.66c55.04,-86.36 142.1,-129.53 261.16,-129.53zm962.09 0c96.6,0 174.67,30.84 234.2,92.52 59.54,61.68 89.3,146.35 89.3,254.01l0 516.43 -181.97 0 0 -497.93c0,-62.8 -16.85,-111.03 -50.55,-144.67 -33.7,-33.64 -79.75,-50.47 -138.16,-50.47 -64.03,0 -115.7,19.91 -155.02,59.72 -39.31,39.81 -58.97,100.65 -58.97,182.52l0 450.83 -181.97 0 0 -841.1 181.97 0 0 107.66c55.04,-86.36 142.1,-129.53 261.16,-129.53zm662.17 519.8c13.48,63.92 44.37,112.99 92.67,147.19 48.3,34.2 107.27,51.31 176.92,51.31 96.6,0 169.05,-34.77 217.35,-104.29l149.96 87.47c-83.12,122.24 -206.12,183.36 -369,183.36 -137.04,0 -247.68,-41.77 -331.93,-125.32 -84.24,-83.55 -126.37,-189.25 -126.37,-317.09 0,-125.61 41.56,-230.74 124.69,-315.41 83.12,-84.67 189.83,-127.01 320.13,-127.01 123.56,0 224.94,43.18 304.13,129.53 79.19,86.35 118.79,191.21 118.79,314.57 0,19.06 -2.25,44.3 -6.74,75.7l-670.6 0zm-1.68 -148.03l495.36 0c-12.36,-68.41 -40.72,-120 -85.09,-154.77 -44.37,-34.76 -96.32,-52.15 -155.85,-52.15 -67.4,0 -123.57,18.5 -168.49,55.51 -44.93,37.01 -73.57,87.48 -85.93,151.4zm1231.67 513.07c-126.93,0 -232.8,-42.62 -317.6,-127.85 -84.81,-85.23 -127.21,-190.09 -127.21,-314.57 0,-125.61 42.4,-230.74 127.21,-315.41 84.81,-84.67 190.68,-127.01 317.6,-127.01 82,0 156.7,19.63 224.1,58.88 67.4,39.25 117.94,91.96 151.64,158.13l-156.7 90.84c-19.09,-40.37 -48.02,-72.05 -86.77,-95.05 -38.75,-22.99 -83.4,-34.48 -133.95,-34.48 -74.14,0 -136.2,25.23 -186.19,75.7 -49.98,50.47 -74.97,113.27 -74.97,188.41 0,75.14 24.99,137.94 74.97,188.4 49.99,50.47 112.05,75.7 186.19,75.7 49.42,0 94.07,-11.78 133.95,-35.33 39.88,-23.55 69.93,-54.95 90.14,-94.2l156.7 89.15c-35.94,67.29 -87.62,120.56 -155.01,159.81 -67.4,39.25 -142.1,58.88 -224.1,58.88zm980.62 -688.02l-208.93 0 0 403.73c0,34.76 7.87,59.72 23.59,74.86 15.72,15.14 39.03,23.55 69.92,25.23 30.89,1.68 69.36,1.4 115.42,-0.84l0 163.17c-139.29,16.82 -239.26,4.76 -299.91,-36.17 -60.66,-40.93 -90.98,-116.35 -90.98,-226.25l0 -403.73 -155.02 0 0 -174.95 155.02 0 0 -181.67 181.97 -53.83 0 235.51 208.93 0 0 174.95z"/>
 </g>
</svg>
