<svg xmlns="http://www.w3.org/2000/svg" xml:space="preserve" width="15in" height="4in" version="1.1" style="shape-rendering:geometricPrecision; text-rendering:geometricPrecision; image-rendering:optimizeQuality; fill-rule:evenodd; clip-rule:evenodd"
viewBox="0 0 15000 4000"
 xmlns:xlink="http://www.w3.org/1999/xlink"
 xmlns:xodm="http://www.corel.com/coreldraw/odm/2003">
 <defs>
  <style type="text/css">
   <![CDATA[
    .fil0 {fill:#E23347}
    .fil1 {fill:white}
    .fil2 {fill:#242B58;fill-rule:nonzero}
   ]]>
  </style>
 </defs>
 <g id="Layer_x0020_1">
  <metadata id="CorelCorpID_0Corel-Layer"/>
  <g id="_2573586837872">
   <path class="fil0" d="M1448.76 1532.03c-37.7,396.43 -555.36,254.39 -489.38,-0.24 89.51,0 88.16,-21.69 110.55,45.92 15.33,46.29 34.59,70.92 87.73,81.54 50.1,10.01 112.85,-0.04 140.75,-24.47 84.61,-74.12 -44.07,-102.75 150.35,-102.75l0 0zm340.72 -429.31l-22.44 0c-95.28,36.37 -1048.03,36.16 -1143.94,0l-22.44 0c-6.08,251.66 34.11,457.27 6.74,756.4 -5.64,61.63 -34.36,176.69 -27.64,229.8l1234.76 0c0.22,-3.35 -42.05,-316.95 -41.94,-473.61 0.12,-164.3 23.88,-364.55 16.9,-512.59z"/>
   <path class="fil1" d="M1448.76 1532.03c-194.43,0 -65.75,28.63 -150.35,102.75 -27.89,24.43 -90.65,34.48 -140.75,24.48 -53.15,-10.62 -72.41,-35.26 -87.73,-81.54 -22.39,-67.62 -21.05,-45.93 -110.55,-45.93 -65.98,254.61 451.7,396.67 489.38,0.24l0 -0.01z"/>
   <path class="fil1" d="M1767.03 1102.72l-1143.94 0c95.9,36.16 1048.65,36.37 1143.94,0z"/>
  </g>
  <path class="fil2" d="M3165.26 2912.27c-111.03,99.62 -254.32,149.42 -429.88,149.42 -175.55,0 -318.83,-49.81 -429.87,-149.42 -111.04,-99.62 -166.55,-233.32 -166.55,-401.09l0 -1051.61 258.83 0 0 1035.87c0,95.87 28.13,172.27 84.41,229.19 56.26,56.93 140.66,85.39 253.2,85.39 112.54,0 196.94,-28.46 253.2,-85.39 56.26,-56.93 84.41,-133.32 84.41,-229.19l0 -1035.87 258.82 0 0 1051.61c0,167.79 -55.52,301.48 -166.55,401.09l-0.02 0zm1676.73 -1032.51c127.54,0 230.31,41.2 308.35,123.59 78.02,82.39 117.04,193.24 117.04,332.55l0 696.57 -243.07 0 0 -680.85c0,-77.9 -19.5,-138.2 -58.52,-180.89 -39.02,-42.69 -92.28,-64.04 -159.8,-64.04 -75.02,0 -134.66,24.72 -178.93,74.15 -44.26,49.44 -66.39,123.59 -66.39,222.46l0 629.16 -243.07 0 0 -680.85c0,-77.91 -18.38,-138.2 -55.14,-180.89 -36.76,-42.69 -88.91,-64.04 -156.42,-64.04 -73.52,0 -133.54,25.1 -180.06,75.27 -46.51,50.19 -69.76,123.96 -69.76,221.34l0 629.16 -243.07 0 0 -1123.52 243.07 0 0 134.82c72.02,-109.36 179.3,-164.03 321.84,-164.03 144.04,0 250.57,59.17 319.6,177.51 75.02,-118.33 189.8,-177.51 344.35,-177.51l-0.03 0.04zm917.15 -185.37c-30.76,30.71 -67.15,46.07 -109.16,46.07 -42.01,0 -78.4,-15.36 -109.16,-46.07 -30.76,-30.71 -46.14,-67.03 -46.14,-108.97 0,-41.94 15,-78.28 45.01,-108.98 30.02,-30.71 66.78,-46.07 110.28,-46.07 43.51,0 80.27,15.36 110.28,46.07 30,30.71 45.01,67.03 45.01,108.98 0,41.94 -15.39,78.28 -46.14,108.97l0.01 0zm-230.69 1338.1l0 -1123.51 243.07 0 0 1123.51 -243.07 0zm1055.56 29.21c-169.55,0 -310.97,-56.93 -424.25,-170.78 -113.27,-113.84 -169.92,-253.92 -169.92,-420.19 0,-167.78 56.65,-308.21 169.92,-421.31 113.29,-113.1 254.7,-169.66 424.25,-169.66 109.54,0 209.31,26.22 299.33,78.65 90.03,52.43 157.56,122.84 202.56,211.23l-209.31 121.34c-25.5,-53.93 -64.14,-96.24 -115.9,-126.96 -51.76,-30.71 -111.41,-46.06 -178.93,-46.06 -99.04,0 -181.93,33.7 -248.71,101.11 -66.78,67.42 -100.15,151.31 -100.15,251.67 0,100.37 33.38,184.26 100.15,251.66 66.78,67.42 149.67,101.12 248.71,101.12 66.01,0 125.65,-15.74 178.93,-47.19 53.26,-31.46 93.39,-73.4 120.4,-125.83l209.31 119.08c-48.01,89.88 -117.04,161.04 -207.06,213.47 -90.02,52.43 -189.81,78.65 -299.33,78.65l0 -0zm1195.1 0c-165.05,0 -305.34,-56.93 -420.87,-170.78 -115.53,-113.84 -173.3,-253.92 -173.3,-420.19 0,-166.28 57.77,-306.35 173.3,-420.19 115.53,-113.84 255.83,-170.78 420.87,-170.78 166.55,0 307.21,56.93 422,170.78 114.78,113.85 172.18,253.92 172.18,420.19 0,166.28 -57.38,306.35 -172.18,420.19 -114.78,113.85 -255.46,170.78 -422,170.78zm-249.81 -337.06c67.52,67.42 150.8,101.12 249.81,101.12 99.04,0 182.31,-33.7 249.83,-101.12 67.52,-67.42 101.28,-152.05 101.28,-253.92 0,-101.86 -33.77,-186.5 -101.28,-253.92 -67.52,-67.4 -150.79,-101.11 -249.83,-101.11 -99.02,0 -182.3,33.7 -249.81,101.11 -67.52,67.42 -101.28,152.06 -101.28,253.92 0,101.87 33.77,186.5 101.28,253.92z"/>
  <path class="fil2" d="M9488.39 2206.38c70.62,36.84 125.89,87.5 165.8,151.98 39.91,64.48 59.87,138.93 59.87,223.37 0,132.02 -46.83,241.79 -140.47,329.29 -93.64,87.5 -208.01,131.26 -343.11,131.26l-690.82 0 0 -1611.91 640.16 0c132.02,0 243.7,42.6 335.05,127.8 91.34,85.2 137.01,191.51 137.01,318.93 0,139.7 -54.5,249.46 -163.5,329.29zm-308.56 -527.33l-375.35 0 0 423.7 375.35 0c58.33,0 107.46,-20.34 147.37,-61.02 39.91,-40.69 59.87,-90.96 59.87,-150.83 0,-59.87 -19.95,-110.15 -59.87,-150.83 -39.91,-40.68 -89.04,-61.02 -147.37,-61.02zm50.66 1114.52c61.41,0 113.22,-21.88 155.44,-65.63 42.22,-43.76 63.32,-97.1 63.32,-160.04 0,-62.94 -21.11,-116.29 -63.32,-160.04 -42.22,-43.75 -94.03,-65.63 -155.44,-65.63l-426 0 0 451.33 426 0zm1252.69 278.63c-168.87,0 -312.41,-58.33 -430.61,-175.01 -118.21,-116.67 -177.31,-260.21 -177.31,-430.61 0,-170.4 59.1,-313.94 177.31,-430.61 118.2,-116.67 261.74,-175.01 430.61,-175.01 170.4,0 314.32,58.33 431.76,175.01 117.43,116.67 176.15,260.21 176.15,430.61 0,170.4 -58.72,313.94 -176.15,430.61 -117.44,116.67 -261.36,175.01 -431.76,175.01zm-255.61 -345.41c69.08,69.08 154.28,103.62 255.61,103.62 101.31,0 186.52,-34.54 255.6,-103.62 69.08,-69.08 103.62,-155.81 103.62,-260.21 0,-104.39 -34.54,-191.13 -103.62,-260.21 -69.08,-69.08 -154.29,-103.62 -255.6,-103.62 -101.32,0 -186.52,34.54 -255.61,103.62 -69.08,69.08 -103.63,155.82 -103.63,260.21 0,104.39 34.54,191.13 103.63,260.21zm1632.64 345.41c-168.87,0 -312.41,-58.33 -430.61,-175.01 -118.21,-116.67 -177.31,-260.21 -177.31,-430.61 0,-170.4 59.1,-313.94 177.31,-430.61 118.2,-116.67 261.74,-175.01 430.61,-175.01 170.4,0 314.32,58.33 431.76,175.01 117.43,116.67 176.16,260.21 176.16,430.61 0,170.4 -58.72,313.94 -176.16,430.61 -117.44,116.67 -261.36,175.01 -431.76,175.01zm-255.61 -345.41c69.08,69.08 154.28,103.62 255.61,103.62 101.31,0 186.52,-34.54 255.6,-103.62 69.08,-69.08 103.62,-155.81 103.62,-260.21 0,-104.39 -34.54,-191.13 -103.62,-260.21 -69.08,-69.08 -154.29,-103.62 -255.6,-103.62 -101.32,0 -186.52,34.54 -255.61,103.62 -69.08,69.08 -103.63,155.82 -103.63,260.21 0,104.39 34.54,191.13 103.63,260.21zm1289.53 -519.65c0,37.99 21.11,67.93 63.71,89.8 42.6,21.88 93.64,42.22 153.13,60.64 59.48,18.04 120.51,36.84 183.06,56.42 62.56,19.19 114.76,54.88 156.59,106.69 41.83,52.19 62.94,117.82 62.94,196.88 0,110.54 -42.6,197.27 -127.8,260.21 -85.2,62.94 -192.28,94.41 -321.23,94.41 -113.6,0 -211.08,-23.79 -292.44,-71.39 -81.37,-47.59 -140.47,-113.6 -177.31,-198.03l214.16 -124.35c39.91,110.53 125.11,165.8 255.6,165.8 130.48,0 195.73,-42.99 195.73,-128.95 0,-36.84 -21.11,-66.78 -63.33,-89.81 -42.22,-23.03 -93.26,-43.75 -152.74,-62.17 -59.49,-18.43 -120.51,-37.23 -183.07,-56.42 -62.56,-19.19 -114.75,-53.73 -156.97,-103.62 -42.22,-49.89 -63.33,-113.21 -63.33,-189.97 0,-105.93 40.3,-191.13 120.89,-255.6 80.6,-64.48 180.76,-96.72 300.5,-96.72 95.18,0 180,21.11 254.46,63.33 74.45,42.22 131.64,100.94 171.56,176.15l-209.55 117.44c-39.91,-87.51 -112.07,-131.26 -216.46,-131.26 -47.59,0 -87.5,10.36 -119.74,30.7 -32.24,20.34 -48.35,50.28 -48.35,89.81zm1434.6 -76.76l-285.54 0 0 552.66c0,47.59 10.74,81.75 32.24,102.47 21.5,20.72 53.35,32.24 95.57,34.54 42.22,2.3 94.8,1.91 157.74,-1.15l0 223.37c-190.36,23.02 -326.99,6.52 -409.89,-49.51 -82.9,-56.04 -124.35,-159.27 -124.35,-309.72l0 -552.66 -211.85 0 0 -239.48 211.85 0 0 -248.7 248.69 -73.69 0 322.38 285.54 0 0 239.48z"/>
 </g>
</svg>
