<svg width="16" height="26" viewBox="0 0 16 26" fill="none" xmlns="http://www.w3.org/2000/svg">
<path d="M2.16669 5.33331C2.16669 5.0681 2.06133 4.81374 1.87379 4.62621C1.68626 4.43867 1.4319 4.33331 1.16669 4.33331C0.90147 4.33331 0.647116 4.43867 0.45958 4.62621C0.272044 4.81374 0.166687 5.0681 0.166687 5.33331V17.3333C0.166687 17.5985 0.272044 17.8529 0.45958 18.0404C0.647116 18.228 0.90147 18.3333 1.16669 18.3333C1.4319 18.3333 1.68626 18.228 1.87379 18.0404C2.06133 17.8529 2.16669 17.5985 2.16669 17.3333V5.33331ZM11.2067 25.3733C11.376 25.204 11.479 24.9795 11.4969 24.7407C11.5147 24.5019 11.4463 24.2646 11.304 24.072L11.2067 23.96L8.54002 21.2933C8.3707 21.124 8.14623 21.021 7.90742 21.0031C7.66861 20.9853 7.43131 21.0537 7.23869 21.196L7.12669 21.2933L4.46002 23.96C4.28274 24.1386 4.17936 24.3776 4.1705 24.6291C4.16164 24.8807 4.24796 25.1263 4.41223 25.317C4.5765 25.5077 4.80664 25.6294 5.05671 25.6579C5.30679 25.6864 5.55841 25.6195 5.76135 25.4706L5.87335 25.3733L7.83335 23.4133L9.79335 25.3733C9.98085 25.5606 10.235 25.6658 10.5 25.6658C10.765 25.6658 11.0192 25.5606 11.2067 25.3733ZM8.83335 1.33331C8.83335 1.0681 8.728 0.813742 8.54046 0.626206C8.35292 0.43867 8.09857 0.333313 7.83335 0.333313C7.56814 0.333313 7.31378 0.43867 7.12625 0.626206C6.93871 0.813742 6.83335 1.0681 6.83335 1.33331V17.3333C6.83335 17.5985 6.93871 17.8529 7.12625 18.0404C7.31378 18.228 7.56814 18.3333 7.83335 18.3333C8.09857 18.3333 8.35292 18.228 8.54046 18.0404C8.728 17.8529 8.83335 17.5985 8.83335 17.3333V1.33331ZM15.5 5.33331C15.5 5.0681 15.3947 4.81374 15.2071 4.62621C15.0196 4.43867 14.7652 4.33331 14.5 4.33331C14.2348 4.33331 13.9804 4.43867 13.7929 4.62621C13.6054 4.81374 13.5 5.0681 13.5 5.33331V17.3333C13.5 17.5985 13.6054 17.8529 13.7929 18.0404C13.9804 18.228 14.2348 18.3333 14.5 18.3333C14.7652 18.3333 15.0196 18.228 15.2071 18.0404C15.3947 17.8529 15.5 17.5985 15.5 17.3333V5.33331Z" fill="white"/>
</svg>
