<svg width="29" height="28" viewBox="0 0 29 28" fill="none" xmlns="http://www.w3.org/2000/svg">
<path d="M24.125 7.875H6.625C6.39294 7.875 6.17038 7.78281 6.00628 7.61872C5.84219 7.45462 5.75 7.23206 5.75 7C5.75 6.76794 5.84219 6.54538 6.00628 6.38128C6.17038 6.21719 6.39294 6.125 6.625 6.125H21.5C21.7321 6.125 21.9546 6.03281 22.1187 5.86872C22.2828 5.70462 22.375 5.48206 22.375 5.25C22.375 5.01794 22.2828 4.79538 22.1187 4.63128C21.9546 4.46719 21.7321 4.375 21.5 4.375H6.625C5.92881 4.375 5.26113 4.65156 4.76884 5.14384C4.27656 5.63613 4 6.30381 4 7V21C4 21.6962 4.27656 22.3639 4.76884 22.8562C5.26113 23.3484 5.92881 23.625 6.625 23.625H24.125C24.5891 23.625 25.0342 23.4406 25.3624 23.1124C25.6906 22.7842 25.875 22.3391 25.875 21.875V9.625C25.875 9.16087 25.6906 8.71575 25.3624 8.38756C25.0342 8.05937 24.5891 7.875 24.125 7.875ZM24.125 21.875H6.625C6.39294 21.875 6.17038 21.7828 6.00628 21.6187C5.84219 21.4546 5.75 21.2321 5.75 21V9.47516C6.03096 9.57475 6.32691 9.62543 6.625 9.625H24.125V21.875ZM18.875 15.3125C18.875 15.0529 18.952 14.7992 19.0962 14.5833C19.2404 14.3675 19.4454 14.1992 19.6852 14.0999C19.9251 14.0006 20.189 13.9746 20.4436 14.0252C20.6982 14.0759 20.932 14.2009 21.1156 14.3844C21.2991 14.568 21.4241 14.8018 21.4748 15.0564C21.5254 15.311 21.4994 15.5749 21.4001 15.8148C21.3008 16.0546 21.1325 16.2596 20.9167 16.4038C20.7008 16.548 20.4471 16.625 20.1875 16.625C19.8394 16.625 19.5056 16.4867 19.2594 16.2406C19.0133 15.9944 18.875 15.6606 18.875 15.3125Z" fill="#FF4B81"/>
</svg>
